<?xml version="1.0" encoding="UTF-8" standalone="no"?>
<!-- Created with Inkscape (http://www.inkscape.org/) -->

<svg
   xmlns:dc="http://purl.org/dc/elements/1.1/"
   xmlns:cc="http://creativecommons.org/ns#"
   xmlns:rdf="http://www.w3.org/1999/02/22-rdf-syntax-ns#"
   xmlns:svg="http://www.w3.org/2000/svg"
   xmlns="http://www.w3.org/2000/svg"
   xmlns:xlink="http://www.w3.org/1999/xlink"
   xmlns:sodipodi="http://sodipodi.sourceforge.net/DTD/sodipodi-0.dtd"
   xmlns:inkscape="http://www.inkscape.org/namespaces/inkscape"
   version="1.0"
   width="92"
   height="78"
   id="svg2408"
   inkscape:version="0.48.2 r9819"
   sodipodi:docname="lightdm-configurator.svg">
  <sodipodi:namedview
     pagecolor="#ffffff"
     bordercolor="#666666"
     borderopacity="1"
     objecttolerance="10"
     gridtolerance="10"
     guidetolerance="10"
     inkscape:pageopacity="0"
     inkscape:pageshadow="2"
     inkscape:window-width="1152"
     inkscape:window-height="811"
     id="namedview127"
     showgrid="false"
     inkscape:zoom="2.3864854"
     inkscape:cx="14.389445"
     inkscape:cy="-6.8204988"
     inkscape:window-x="0"
     inkscape:window-y="24"
     inkscape:window-maximized="1"
     inkscape:current-layer="svg2408"
     showguides="true"
     inkscape:guide-bbox="true" />
  <defs
     id="defs2410">
    <linearGradient
       x1="45.447727"
       y1="92.539597"
       x2="45.447727"
       y2="7.0165396"
       id="ButtonShadow"
       gradientUnits="userSpaceOnUse"
       gradientTransform="scale(1.0058652,0.994169)">
      <stop
         id="stop3750"
         style="stop-color:#000000;stop-opacity:1"
         offset="0" />
      <stop
         id="stop3752"
         style="stop-color:#000000;stop-opacity:0.58823532"
         offset="1" />
    </linearGradient>
    <linearGradient
       id="linearGradient3737">
      <stop
         id="stop3739"
         style="stop-color:#ffffff;stop-opacity:1"
         offset="0" />
      <stop
         id="stop3741"
         style="stop-color:#ffffff;stop-opacity:0"
         offset="1" />
    </linearGradient>
    <linearGradient
       id="linearGradient3700">
      <stop
         id="stop3702"
         style="stop-color:#2276c5;stop-opacity:1"
         offset="0" />
      <stop
         id="stop3704"
         style="stop-color:#68baf4;stop-opacity:1"
         offset="1" />
    </linearGradient>
    <filter
       color-interpolation-filters="sRGB"
       id="filter3174">
      <feGaussianBlur
         id="feGaussianBlur3176"
         stdDeviation="1.71" />
    </filter>
    <filter
       x="-0.192"
       y="-0.192"
       width="1.3839999"
       height="1.3839999"
       color-interpolation-filters="sRGB"
       id="filter3794">
      <feGaussianBlur
         id="feGaussianBlur3796"
         stdDeviation="5.28" />
    </filter>
    <linearGradient
       x1="48"
       y1="20.220806"
       x2="48"
       y2="138.66119"
       id="linearGradient3613"
       xlink:href="#linearGradient3737"
       gradientUnits="userSpaceOnUse" />
    <radialGradient
       cx="48"
       cy="72.097908"
       r="42"
       fx="48"
       fy="72.097908"
       id="radialGradient3619"
       xlink:href="#linearGradient3737"
       gradientUnits="userSpaceOnUse"
       gradientTransform="matrix(1.1573129,0,0,0.99590774,-7.55102,0.1971319)" />
    <clipPath
       id="clipPath3613">
      <rect
         width="84"
         height="84"
         rx="6"
         ry="6"
         x="6"
         y="6"
         id="rect3615"
         style="fill:#ffffff;fill-opacity:1;fill-rule:nonzero;stroke:none" />
    </clipPath>
    <linearGradient
       x1="48"
       y1="90"
       x2="48"
       y2="5.9877172"
       id="linearGradient3617"
       xlink:href="#linearGradient3700"
       gradientUnits="userSpaceOnUse"
       gradientTransform="translate(-100,0)" />
    <linearGradient
       x1="45.447727"
       y1="92.539597"
       x2="45.447727"
       y2="7.0165396"
       id="ButtonShadow-0"
       gradientUnits="userSpaceOnUse"
       gradientTransform="matrix(1.0058652,0,0,0.994169,100,0)">
      <stop
         id="stop3750-8"
         style="stop-color:#000000;stop-opacity:1"
         offset="0" />
      <stop
         id="stop3752-5"
         style="stop-color:#000000;stop-opacity:0.58823532"
         offset="1" />
    </linearGradient>
    <linearGradient
       x1="32.251034"
       y1="6.1317081"
       x2="32.251034"
       y2="90.238609"
       id="linearGradient3780"
       xlink:href="#ButtonShadow-0"
       gradientUnits="userSpaceOnUse"
       gradientTransform="matrix(1.0238095,0,0,1.0119048,-1.1428571,-98.071429)" />
    <linearGradient
       x1="32.251034"
       y1="6.1317081"
       x2="32.251034"
       y2="90.238609"
       id="linearGradient3772"
       xlink:href="#ButtonShadow-0"
       gradientUnits="userSpaceOnUse"
       gradientTransform="matrix(1.0238095,0,0,1.0119048,-1.1428571,-98.071429)" />
    <linearGradient
       x1="32.251034"
       y1="6.1317081"
       x2="32.251034"
       y2="90.238609"
       id="linearGradient3725"
       xlink:href="#ButtonShadow-0"
       gradientUnits="userSpaceOnUse"
       gradientTransform="matrix(1.0238095,0,0,1.0119048,98.857143,-98.071429)" />
    <linearGradient
       x1="32.251034"
       y1="6.1317081"
       x2="32.251034"
       y2="90.238609"
       id="linearGradient3721"
       xlink:href="#ButtonShadow-0"
       gradientUnits="userSpaceOnUse"
       gradientTransform="translate(100,-97)" />
    <linearGradient
       x1="32.251034"
       y1="6.1317081"
       x2="32.251034"
       y2="90.238609"
       id="linearGradient3026"
       xlink:href="#ButtonShadow-0"
       gradientUnits="userSpaceOnUse"
       gradientTransform="matrix(1.0238095,0,0,1.0119048,-1.1428571,-98.071429)" />
    <linearGradient
       x1="43.30954"
       y1="91.125015"
       x2="43.30954"
       y2="82.822479"
       id="linearGradient3831"
       xlink:href="#linearGradient3734"
       gradientUnits="userSpaceOnUse" />
    <linearGradient
       id="linearGradient3734">
      <stop
         id="stop3736"
         style="stop-color:#bfbfbf;stop-opacity:1"
         offset="0" />
      <stop
         id="stop3738"
         style="stop-color:#9a9a9a;stop-opacity:1"
         offset="1" />
    </linearGradient>
    <linearGradient
       x1="48"
       y1="86.071426"
       x2="48"
       y2="72.303963"
       id="linearGradient3769"
       xlink:href="#linearGradient3771"
       gradientUnits="userSpaceOnUse"
       gradientTransform="translate(0,1)" />
    <linearGradient
       id="linearGradient3771">
      <stop
         id="stop3773"
         style="stop-color:#ababab;stop-opacity:0"
         offset="0" />
      <stop
         id="stop3779"
         style="stop-color:#e6e6e6;stop-opacity:1"
         offset="0.15620089" />
      <stop
         id="stop3777"
         style="stop-color:#aaaaaa;stop-opacity:1"
         offset="1" />
    </linearGradient>
    <linearGradient
       x1="37"
       y1="72.089287"
       x2="37"
       y2="84"
       id="linearGradient3797"
       xlink:href="#linearGradient3803"
       gradientUnits="userSpaceOnUse"
       gradientTransform="translate(0,1)" />
    <linearGradient
       id="linearGradient3803">
      <stop
         id="stop3805"
         style="stop-color:#000000;stop-opacity:1"
         offset="0" />
      <stop
         id="stop3807"
         style="stop-color:#000000;stop-opacity:0"
         offset="1" />
    </linearGradient>
    <linearGradient
       x1="60"
       y1="70"
       x2="60"
       y2="84.028442"
       id="linearGradient3809"
       xlink:href="#linearGradient3803"
       gradientUnits="userSpaceOnUse"
       gradientTransform="translate(0,1)" />
    <linearGradient
       x1="44.69643"
       y1="66.995277"
       x2="44.69643"
       y2="78.306824"
       id="linearGradient3813"
       xlink:href="#linearGradient3803"
       gradientUnits="userSpaceOnUse"
       gradientTransform="matrix(1,0,0,0.4210526,-1.3176576e-7,44.789471)" />
    <linearGradient
       id="linearGradient3737-5">
      <stop
         id="stop3739-6"
         style="stop-color:#ffffff;stop-opacity:1"
         offset="0" />
      <stop
         id="stop3741-9"
         style="stop-color:#57ffff;stop-opacity:0;"
         offset="1" />
    </linearGradient>
    <radialGradient
       cx="48"
       cy="4.3132138"
       r="35.9375"
       fx="48"
       fy="4.3132138"
       id="radialGradient3465"
       xlink:href="#linearGradient3175-4"
       gradientUnits="userSpaceOnUse"
       gradientTransform="matrix(-2.7021356e-8,1.6165908,-1.3333334,-2.2260868e-8,53.750954,-65.764352)" />
    <linearGradient
       id="linearGradient3700-8">
      <stop
         id="stop3702-5"
         style="stop-color:#000000;stop-opacity:1"
         offset="0" />
      <stop
         id="stop3704-6"
         style="stop-color:#1f1f1f;stop-opacity:1"
         offset="1" />
    </linearGradient>
    <linearGradient
       x1="48"
       y1="72"
       x2="48"
       y2="5.9877172"
       id="linearGradient3205"
       xlink:href="#linearGradient3700-8"
       gradientUnits="userSpaceOnUse" />
    <linearGradient
       id="linearGradient3175-4">
      <stop
         id="stop3177-5"
         style="stop-color:#7aa57f;stop-opacity:0.94117647;"
         offset="0" />
      <stop
         id="stop3179-1"
         style="stop-color:#245b1a;stop-opacity:0.94117647;"
         offset="1" />
    </linearGradient>
    <linearGradient
       id="linearGradient3737-1">
      <stop
         id="stop3739-4"
         style="stop-color:#ffffff;stop-opacity:1"
         offset="0" />
      <stop
         id="stop3741-91"
         style="stop-color:#ffffff;stop-opacity:0"
         offset="1" />
    </linearGradient>
    <linearGradient
       x1="142.47113"
       y1="16.125"
       x2="142.47113"
       y2="58"
       id="linearGradient4126"
       xlink:href="#linearGradient3687"
       gradientUnits="userSpaceOnUse"
       gradientTransform="translate(-78,-2)" />
    <linearGradient
       id="linearGradient3687">
      <stop
         id="stop3689"
         style="stop-color:#ffffff;stop-opacity:1"
         offset="0" />
      <stop
         id="stop3691"
         style="stop-color:#ffffff;stop-opacity:0"
         offset="1" />
    </linearGradient>
    <linearGradient
       x1="65.15625"
       y1="16.125"
       x2="65.15625"
       y2="66"
       id="linearGradient3129"
       xlink:href="#linearGradient3737-1"
       gradientUnits="userSpaceOnUse"
       gradientTransform="translate(2,-2)" />
    <linearGradient
       x1="36.357143"
       y1="6"
       x2="36.357143"
       y2="63.893143"
       id="linearGradient3922"
       xlink:href="#linearGradient3737-5"
       gradientUnits="userSpaceOnUse" />
    <linearGradient
       x1="68.517296"
       y1="9.0625"
       x2="68.517296"
       y2="90"
       id="linearGradient3926"
       xlink:href="#linearGradient3737-1"
       gradientUnits="userSpaceOnUse"
       gradientTransform="translate(2,-2)" />
    <linearGradient
       x1="49"
       y1="91"
       x2="49"
       y2="7"
       id="linearGradient3963"
       xlink:href="#ButtonShadow"
       gradientUnits="userSpaceOnUse" />
    <linearGradient
       x1="48"
       y1="92"
       x2="48"
       y2="7"
       id="linearGradient3971"
       xlink:href="#ButtonShadow"
       gradientUnits="userSpaceOnUse" />
    <linearGradient
       x1="48"
       y1="92"
       x2="48"
       y2="7"
       id="linearGradient3979"
       xlink:href="#ButtonShadow"
       gradientUnits="userSpaceOnUse" />
    <linearGradient
       x1="48"
       y1="92"
       x2="48"
       y2="7"
       id="linearGradient3993"
       xlink:href="#ButtonShadow"
       gradientUnits="userSpaceOnUse" />
    <linearGradient
       x1="48"
       y1="92"
       x2="48"
       y2="7"
       id="linearGradient4001"
       xlink:href="#ButtonShadow"
       gradientUnits="userSpaceOnUse" />
    <linearGradient
       inkscape:collect="always"
       xlink:href="#linearGradient3737-1"
       id="linearGradient3121"
       gradientUnits="userSpaceOnUse"
       gradientTransform="matrix(1,0,0,1.046203,0,-6.2757743)"
       x1="68.517296"
       y1="9.0625"
       x2="68.517296"
       y2="90" />
    <linearGradient
       inkscape:collect="always"
       xlink:href="#linearGradient3687"
       id="linearGradient3124"
       gradientUnits="userSpaceOnUse"
       gradientTransform="matrix(1,0,0,1.046203,-80,-6.2757743)"
       x1="142.47113"
       y1="16.125"
       x2="142.47113"
       y2="58" />
    <linearGradient
       inkscape:collect="always"
       xlink:href="#linearGradient3737-1"
       id="linearGradient3127"
       gradientUnits="userSpaceOnUse"
       gradientTransform="matrix(1,0,0,1.046203,0,-6.2757743)"
       x1="65.15625"
       y1="16.125"
       x2="65.15625"
       y2="66" />
    <linearGradient
       inkscape:collect="always"
       xlink:href="#linearGradient3737-5"
       id="linearGradient3144"
       gradientUnits="userSpaceOnUse"
       x1="36.357143"
       y1="6"
       x2="36.357143"
       y2="63.893143"
       gradientTransform="matrix(1,0,0,1.046203,-2,-4.1833683)" />
    <linearGradient
       inkscape:collect="always"
       xlink:href="#ButtonShadow"
       id="linearGradient5459"
       gradientUnits="userSpaceOnUse"
       gradientTransform="scale(1.0058652,0.994169)"
       x1="45.447727"
       y1="92.539597"
       x2="45.447727"
       y2="7.0165396" />
    <radialGradient
       inkscape:collect="always"
       xlink:href="#linearGradient3175-4"
       id="radialGradient5461"
       gradientUnits="userSpaceOnUse"
       gradientTransform="matrix(2.5174678e-8,-1.5502589,1.2422115,2.1347461e-8,40.642076,137.08422)"
       cx="48"
       cy="4.3132138"
       fx="48"
       fy="4.3132138"
       r="35.9375" />
    <linearGradient
       inkscape:collect="always"
       xlink:href="#linearGradient3700"
       id="linearGradient5463"
       gradientUnits="userSpaceOnUse"
       gradientTransform="matrix(1,0,0,1.046203,-102,-4.1833683)"
       x1="48"
       y1="90"
       x2="48"
       y2="5.9877172" />
    <filter
       inkscape:collect="always"
       id="filter3942"
       x="-0.068248381"
       width="1.1364968"
       y="-0.16715257"
       height="1.3343051">
      <feGaussianBlur
         inkscape:collect="always"
         stdDeviation="0.7867521"
         id="feGaussianBlur3944" />
    </filter>
  </defs>
  <metadata
     id="metadata2413">
    <rdf:RDF>
      <cc:Work
         rdf:about="">
        <dc:format>image/svg+xml</dc:format>
        <dc:type
           rdf:resource="http://purl.org/dc/dcmitype/StillImage" />
        <dc:title></dc:title>
      </cc:Work>
    </rdf:RDF>
  </metadata>
  <g
     id="layer2"
     style="display:none"
     transform="translate(0,-18)">
    <rect
       width="86"
       height="85"
       rx="6"
       ry="6"
       x="5"
       y="7"
       id="rect3745"
       style="opacity:0.9;fill:url(#linearGradient5459);fill-opacity:1;fill-rule:nonzero;stroke:none;filter:url(#filter3174)" />
  </g>
  <g
     id="layer3"
     style="display:inline"
     transform="matrix(1,0,0,1.046203,-2,-4.1833683)">
    <path
       d="M 12,4.09375 C 5.9613395,3.9244333 1.3717854,9.755257 2.09375,15.53125 c 7.11e-5,0.04167 -6.96e-5,0.08333 0,0.125 0.03021,18.08647 -0.077057,36.153677 0.03125,54.25 -7.233e-4,0.02083 -7.233e-4,0.04167 0,0.0625 0.4184133,5.802734 6.1884567,9.609601 11.65625,8.9375 0.04186,-0.0051 0.08318,0.0057 0.125,0 l 19.1875,0 c 18.837944,-0.173473 9.69924,-0.05272 29.8125,0 7.327061,-0.01883 14.648932,0.07177 22,-0.03125 0.02083,7.23e-4 9.782416,-0.03631 9.136574,-3e-6 0,0 0.02567,-32.078688 -0.167824,-65.78125 7.23e-4,-0.02083 7.23e-4,-0.04167 0,-0.0625 C 93.456586,7.2285158 87.686543,3.4216484 82.21875,4.09375 l -0.125,0 -70.0625,0 z"
       id="path3999"
       style="opacity:0.07999998;fill:url(#linearGradient4001);fill-opacity:1;fill-rule:nonzero;stroke:none;display:inline"
       inkscape:connector-curvature="0"
       sodipodi:nodetypes="ccscccccccccccccc" />
    <path
       d="M 12,5 C 6.509126,4.8269979 2.2704592,10.243848 3,15.518889 3.030925,33.651707 2.9380651,51.787661 3.0465784,69.918512 3.4266036,75.188863 8.7599468,78.679673 13.772038,78 c 34.91617,-0.409471 45.124521,0.165009 79.331659,-0.305839 0,0 -0.05508,-47.743592 -0.150275,-64.612673 C 92.573396,7.8111365 87.240053,4.3203269 82.227962,5 58.818642,5 35.409321,5 12,5 z"
       inkscape:connector-curvature="0"
       id="path3985"
       style="opacity:0.1;fill:url(#linearGradient3993);fill-opacity:1;fill-rule:nonzero;stroke:none;display:inline"
       sodipodi:nodetypes="cccccccc" />
    <path
       d="M 12,5.9375 C 7.5479319,5.9375 3.9375,9.5479319 3.9375,14 l 0,55 c 0,4.452068 3.6104319,8.0625 8.0625,8.0625 31.899159,0.141818 48.501823,-0.09197 80.0625,-0.284722 L 92.0625,14 C 92.0625,9.5479319 88.452068,5.9375 84,5.9375 z"
       id="path3977"
       style="opacity:0.2;fill:url(#linearGradient3979);fill-opacity:1;fill-rule:nonzero;stroke:none;display:inline"
       inkscape:connector-curvature="0"
       sodipodi:nodetypes="sssccsss" />
    <path
       d="M 12,7 C 8.122,7 5,10.122 5,14 l 0,55 c 0,3.878 3.122,7 7,7 26.571297,-0.01919 52.544315,0 79.037037,0 0,0 -0.06531,-46.874827 -0.03704,-62 0.0072,-3.877993 -3.122,-7 -7,-7 z"
       inkscape:connector-curvature="0"
       id="path3951"
       style="opacity:0.3;fill:url(#linearGradient3971);fill-opacity:1;fill-rule:nonzero;stroke:none;display:inline"
       sodipodi:nodetypes="ssscccss" />
    <path
       d="m 12,-95.03125 c -5.5110903,0 -10.03125,4.52016 -10.03125,10.03125 l 0,71 c 0,5.5110902 4.5201598,10.03125 10.03125,10.03125 l 72,0 c 5.51109,0 10.03125,-4.5201597 10.03125,-10.03125 l 0,-71 c 0,-5.51109 -4.52016,-10.03125 -10.03125,-10.03125 l -72,0 z"
       transform="matrix(1,0,0,-1,100,0)"
       id="path3786"
       style="opacity:0.07999998;fill:url(#linearGradient3026);fill-opacity:1;fill-rule:nonzero;stroke:none;display:inline"
       inkscape:connector-curvature="0" />
    <path
       d="m 12,-94.03125 c -4.971633,0 -9.03125,4.059617 -9.03125,9.03125 l 0,71 c 0,4.9716329 4.0596171,9.03125 9.03125,9.03125 l 72,0 c 4.971633,0 9.03125,-4.059617 9.03125,-9.03125 l 0,-71 c 0,-4.971633 -4.059617,-9.03125 -9.03125,-9.03125 l -72,0 z"
       transform="matrix(1,0,0,-1,100,0)"
       id="path3778"
       style="opacity:0.1;fill:url(#linearGradient3780);fill-opacity:1;fill-rule:nonzero;stroke:none;display:inline"
       inkscape:connector-curvature="0" />
    <path
       d="m 12,-93 c -4.4091333,0 -8,3.590867 -8,8 l 0,71 c 0,4.4091333 3.5908667,8 8,8 l 72,0 c 4.409133,0 8,-3.5908667 8,-8 l 0,-71 c 0,-4.409133 -3.590867,-8 -8,-8 l -72,0 z"
       transform="matrix(1,0,0,-1,100,0)"
       id="path3770"
       style="opacity:0.2;fill:url(#linearGradient3772);fill-opacity:1;fill-rule:nonzero;stroke:none;display:inline"
       inkscape:connector-curvature="0" />
    <rect
       width="86"
       height="85"
       rx="7"
       ry="6.6908622"
       x="105"
       y="-92"
       transform="scale(1,-1)"
       id="rect3723"
       style="opacity:0.3;fill:url(#linearGradient3725);fill-opacity:1;fill-rule:nonzero;stroke:none;display:inline" />
    <rect
       width="84"
       height="84"
       rx="6"
       ry="5.7350245"
       x="106"
       y="-91"
       transform="scale(1,-1)"
       id="rect3716"
       style="opacity:0.45;fill:url(#linearGradient3721);fill-opacity:1;fill-rule:nonzero;stroke:none;display:inline" />
    <path
       d="M 12,7 C 8.676,7 6,9.676 6,13 l 0,56 c 0,3.324 2.676,6 6,6 32.385641,-0.297509 45.764116,0.0077 78,-0.03704 L 90,13 C 90,9.676 87.324,7 84,7 z"
       inkscape:connector-curvature="0"
       id="path3929"
       style="opacity:0.45;fill:url(#linearGradient3963);fill-opacity:1;fill-rule:nonzero;stroke:none;display:inline"
       sodipodi:nodetypes="sssccsss" />
  </g>
  <path
     style="fill:#0d0c0c;fill-opacity:1;fill-rule:nonzero;stroke:none"
     d="m 10,2.0938499 71.962959,0 c 3.324,0 5.998012,2.7996403 6,6.2772182 l 0.03704,64.7870909 c -8.152025,-0.03874 -57.41378,0.01025 -77.999996,0 -3.3239996,-0.0016 -6,-2.799639 -6,-6.277218 L 4,8.3710681 C 4,4.8934892 6.676,2.0938499 10,2.0938499 z"
     id="rect2419-9"
     inkscape:connector-curvature="0"
     sodipodi:nodetypes="sssccsss"
     inkscape:export-filename="/home/drkpkg/Escritorio/ldm/data/logo.png"
     inkscape:export-xdpi="344"
     inkscape:export-ydpi="344" />
  <path
     style="opacity:0.15;fill:url(#linearGradient3144);fill-opacity:1;fill-rule:nonzero;stroke:none"
     id="rect3728-7"
     inkscape:connector-curvature="0"
     d="m 10,2.0938499 c -3.324,0 -6,2.7996393 -6,6.2772182 l 0,2.0924059 0,52.337867 0,2.092405 c 0,0.350187 0.04135,0.680765 0.09375,1.01351 0.0487,0.309253 0.09704,0.624494 0.1875,0.915428 0.0099,0.03178 0.02089,0.06654 0.03125,0.09808 0.09886,0.301068 0.23488,0.572746 0.375,0.85004 0.144592,0.286145 0.315616,0.560363 0.5,0.817347 0.184384,0.256984 0.373776,0.495348 0.59375,0.719265 0.439947,0.447833 0.94291,0.852159 1.5,1.144284 0.278545,0.146063 0.573473,0.258357 0.875,0.359632 -0.256202,-0.104852 -0.486711,-0.247188 -0.71875,-0.392326 -0.0074,-0.0046 -0.02387,0.0047 -0.03125,0 C 7.37432,70.398814 7.34396,70.374532 7.3125,70.353619 7.192105,70.273375 7.081477,70.182551 6.96875,70.092068 6.862577,70.007535 6.755469,69.923511 6.65625,69.830517 6.47832,69.661625 6.30879,69.469171 6.15625,69.274722 6.048671,69.138449 5.937856,68.99718 5.84375,68.849702 5.81866,68.809548 5.8053,68.759864 5.78125,68.718926 5.71649,68.611134 5.651022,68.504959 5.59375,68.391988 5.492742,68.188286 5.388075,67.95708 5.3125,67.73811 5.3045,67.715293 5.28891,67.695688 5.28125,67.672724 5.24942,67.576525 5.24545,67.47726 5.21875,67.378478 5.18842,67.266934 5.14836,67.166067 5.125,67.05154 5.052121,66.694249 5,66.321076 5,65.93995 L 5,63.847543 5,11.509678 5,9.4172711 C 5,6.5068932 7.218152,4.1862559 10,4.1862559 l 2,0 68,0 2,0 c 2.781848,0 5,2.3206373 5,5.2310152 l 0,2.0924069 0,52.337865 0,2.092407 c 0,0.381126 -0.05212,0.754299 -0.125,1.11159 -0.04415,0.216452 -0.08838,0.416031 -0.15625,0.621184 -0.0077,0.02297 -0.0233,0.04257 -0.03125,0.06538 -0.06274,0.181767 -0.138383,0.384427 -0.21875,0.555796 -0.04158,0.08662 -0.07904,0.177806 -0.125,0.261551 -0.0546,0.101701 -0.126774,0.197052 -0.1875,0.294245 -0.09411,0.147478 -0.204921,0.288747 -0.3125,0.42502 -0.143174,0.182509 -0.303141,0.36303 -0.46875,0.523101 -0.01117,0.01067 -0.01998,0.02214 -0.03125,0.0327 -0.138386,0.131357 -0.285091,0.245268 -0.4375,0.359632 -0.102571,0.07653 -0.204318,0.16045 -0.3125,0.228857 -0.0074,0.0047 -0.02384,-0.0046 -0.03125,0 -0.232039,0.145138 -0.462548,0.287474 -0.71875,0.392326 0.301527,-0.101273 0.596455,-0.213569 0.875,-0.359632 0.55709,-0.292125 1.060053,-0.696451 1.5,-1.144284 0.219973,-0.223917 0.409366,-0.462281 0.59375,-0.719265 0.184384,-0.256984 0.355408,-0.531202 0.5,-0.817347 0.14012,-0.277294 0.276135,-0.548972 0.375,-0.85004 0.01041,-0.0322 0.02133,-0.06564 0.03125,-0.09808 0.09046,-0.290934 0.1388,-0.606175 0.1875,-0.915428 C 87.95865,65.574511 88,65.243933 88,64.893746 l 0,-2.092405 0,-52.337867 0,-2.0924059 C 88,4.8934892 85.324,2.0938499 82,2.0938499 l -72,0 z" />
  <path
     inkscape:connector-curvature="0"
     style="fill:url(#radialGradient5461);fill-opacity:1;fill-rule:nonzero;stroke:none"
     id="path3215"
     d="m 79.481481,62.450751 0,-51.664403 -66.96296,0 0,51.664403 66.96296,0 z" />
  <path
     style="opacity:0.07999998;fill:#000000;fill-opacity:1;fill-rule:nonzero;stroke:none"
     id="path4001"
     inkscape:connector-curvature="0"
     d="m 12.518519,10.635394 0,51.966311 66.962962,0 0,-51.966311 -66.962962,0 z m 1.860082,1.924678 63.242798,0 0,48.116955 -63.242798,0 0,-48.116955 z" />
  <path
     inkscape:connector-curvature="0"
     style="opacity:0.15;fill:none;stroke:#000000;stroke-width:1.00100005;stroke-linecap:square;stroke-linejoin:miter;stroke-miterlimit:4;stroke-opacity:1;stroke-dasharray:none;stroke-dashoffset:0"
     id="path3374"
     d="m 12.426433,10.555205 0,52.126688 67.147136,0 0,-52.126688 -67.147136,0 z" />
  <rect
     style="opacity:0.4;fill:#ffffff;fill-opacity:1;fill-rule:nonzero;stroke:none"
     id="rect3724"
     y="62.517792"
     x="12.37037"
     height="1.046203"
     width="67.40741" />
  <rect
     style="fill:url(#linearGradient5463);fill-opacity:1;fill-rule:nonzero;stroke:none"
     id="rect2419"
     y="2.0938499"
     x="-96"
     ry="6"
     rx="6"
     height="87.88105"
     width="84" />
  <path
     style="opacity:0.3;fill:#000000;fill-opacity:1;fill-rule:nonzero;stroke:none"
     id="path3992"
     inkscape:connector-curvature="0"
     d="m 11.925926,9.4277534 0,1.0462026 67.407407,0 0,-1.0462026 -67.407407,0 z" />
  <path
     style="opacity:0.5;fill:url(#linearGradient3127);fill-opacity:1;fill-rule:evenodd;stroke:none;display:inline"
     id="path2669"
     inkscape:connector-curvature="0"
     d="m 47.65625,10.59425 17.03125,53.094803 1,0 L 48.65625,10.59425 z" />
  <path
     style="opacity:0.7;fill:url(#linearGradient3124);fill-opacity:1;fill-rule:evenodd;stroke:none;display:inline"
     id="path3664"
     inkscape:connector-curvature="0"
     d="m 47.65625,10.59425 17.03125,53.094803 14.3125,0 c 0.538805,0 0.875,-0.351729 0.875,-0.915428 l 0,-51.263947 c 0,-0.5637 -0.336194,-0.915428 -0.875,-0.915428 z" />
  <path
     style="opacity:0.25;fill:url(#linearGradient3121);fill-opacity:1;fill-rule:evenodd;stroke:none;display:inline"
     id="path4128"
     inkscape:connector-curvature="0"
     d="m 45.375,4.1862559 2.36457,6.3942331 30.556713,-0.150956 c 0.58434,0.0062 1.352897,0.500252 1.358797,1.111591 l -0.419026,50.44892 c 0,0 -0.47816,1.105417 -1.0625,1.11159 l -10.84258,0.150955 1.794026,7.825273 17.869213,0 C 87.014223,71.113324 86.943178,27.725661 86.9375,8.6326188 86.573765,6.1090851 84.52105,4.1862559 82,4.1862559 l -2,0 z"
     sodipodi:nodetypes="ccccccccccscc" />
  <g
     id="layer5"
     style="display:none"
     transform="translate(0,-18)">
    <rect
       width="66"
       height="66"
       rx="12"
       ry="12"
       x="15"
       y="15"
       clip-path="url(#clipPath3613)"
       id="rect3171"
       style="opacity:0.1;fill:url(#linearGradient3613);fill-opacity:1;fill-rule:nonzero;stroke:#ffffff;stroke-width:0.5;stroke-linecap:round;stroke-linejoin:miter;stroke-miterlimit:4;stroke-opacity:1;stroke-dasharray:none;stroke-dashoffset:0;filter:url(#filter3794)" />
  </g>
  <rect
     style="color:#000000;fill:none;stroke:#000000;stroke-width:0.2;stroke-linecap:butt;stroke-linejoin:miter;stroke-miterlimit:4;stroke-opacity:1;stroke-dasharray:none;stroke-dashoffset:0;marker:none;visibility:visible;display:inline;overflow:visible;enable-background:accumulate"
     id="rect5410"
     width="85.271843"
     height="27.727947"
     x="19.684607"
     y="99.923615"
     rx="6"
     ry="5.9999995" />
  <rect
     style="opacity:0.49609375;color:#000000;fill:#ffffff;fill-opacity:1;fill-rule:nonzero;stroke:none;stroke-width:0.2;marker:none;visibility:visible;display:inline;overflow:visible;filter:url(#filter3942);enable-background:accumulate"
     id="rect3910"
     width="27.666664"
     height="11.296297"
     x="15.259258"
     y="36.962963"
     ry="2.2535975"
     rx="2.2962956"
     transform="matrix(1,0,0,1.0189466,0,5.9208193e-4)" />
</svg>
